<svg width="31" height="32" viewBox="0 0 31 32" fill="none" xmlns="http://www.w3.org/2000/svg">
<path d="M24.9678 7.83665L16.8691 3.47082C16.0166 3.00582 14.9833 3.00582 14.1308 3.47082L6.03201 7.83665C5.43784 8.15957 5.07617 8.77957 5.07617 9.48999C5.07617 10.1875 5.43784 10.8204 6.03201 11.1433L14.1308 15.5092C14.557 15.7417 15.0349 15.8579 15.4999 15.8579C15.9649 15.8579 16.4428 15.7417 16.8691 15.5092L24.9678 11.1433C25.562 10.8204 25.9237 10.2004 25.9237 9.48999C25.9237 8.77957 25.562 8.15957 24.9678 7.83665Z" fill="#FFDF6F"/>
<path opacity="0.4" d="M12.8006 17.0204L5.25725 13.2488C4.676 12.9646 4.00433 12.9904 3.46183 13.3263C2.90641 13.675 2.5835 14.2563 2.5835 14.9021V22.0192C2.5835 23.2463 3.26808 24.3571 4.366 24.9125L11.8964 28.6842C12.1547 28.8134 12.4389 28.8779 12.7231 28.8779C13.0589 28.8779 13.3947 28.7875 13.6918 28.6067C14.2472 28.2709 14.5702 27.6767 14.5702 27.0309V19.9138C14.5831 18.6738 13.8985 17.5629 12.8006 17.0204Z" fill="#FFDF6F"/>
<path opacity="0.4" d="M27.5385 13.3262C26.9831 12.9904 26.3114 12.9517 25.7431 13.2487L18.2127 17.0204C17.1148 17.5758 16.4302 18.6737 16.4302 19.9137V27.0308C16.4302 27.6767 16.7531 28.2708 17.3085 28.6067C17.6056 28.7875 17.9414 28.8779 18.2773 28.8779C18.5614 28.8779 18.8456 28.8133 19.1039 28.6842L26.6343 24.9125C27.7323 24.3571 28.4168 23.2592 28.4168 22.0192V14.9021C28.4168 14.2562 28.0939 13.675 27.5385 13.3262Z" fill="#FFDF6F"/>
</svg>
