<svg width="25" height="24" viewBox="0 0 25 24" fill="none" xmlns="http://www.w3.org/2000/svg">
<path d="M22.25 16.74V4.67001C22.25 3.47001 21.27 2.58001 20.08 2.68001H20.02C17.92 2.86001 14.73 3.93001 12.95 5.05001L12.78 5.16001C12.49 5.34001 12.01 5.34001 11.72 5.16001L11.47 5.01001C9.69 3.90001 6.51 2.84001 4.41 2.67001C3.22 2.57001 2.25 3.47001 2.25 4.66001V16.74C2.25 17.7 3.03 18.6 3.99 18.72L4.28 18.76C6.45 19.05 9.8 20.15 11.72 21.2L11.76 21.22C12.03 21.37 12.46 21.37 12.72 21.22C14.64 20.16 18 19.05 20.18 18.76L20.51 18.72C21.47 18.6 22.25 17.7 22.25 16.74Z" stroke="#D5D5E2" stroke-width="1.5" stroke-linecap="round" stroke-linejoin="round"/>
<path d="M12.25 5.48999V20.49" stroke="#D5D5E2" stroke-width="1.5" stroke-linecap="round" stroke-linejoin="round"/>
<path d="M8 8.48999H5.75" stroke="#D5D5E2" stroke-width="1.5" stroke-linecap="round" stroke-linejoin="round"/>
<path d="M8.75 11.49H5.75" stroke="#D5D5E2" stroke-width="1.5" stroke-linecap="round" stroke-linejoin="round"/>
</svg>
