<svg width="32" height="32" viewBox="0 0 32 32" fill="none" xmlns="http://www.w3.org/2000/svg">
<path opacity="0.4" d="M26.1281 13.4167V23.75C26.1281 27.625 24.8364 28.9167 20.9614 28.9167H10.6281C6.75309 28.9167 5.46143 27.625 5.46143 23.75V13.4167H26.1281Z" fill="#FFC2D7"/>
<path d="M28.1042 9.54165V10.8333C28.1042 12.2541 27.4196 13.4166 25.5208 13.4166H6.14583C4.16958 13.4166 3.5625 12.2541 3.5625 10.8333V9.54165C3.5625 8.12081 4.16958 6.95831 6.14583 6.95831H25.5208C27.4196 6.95831 28.1042 8.12081 28.1042 9.54165Z" fill="#FFC2D7"/>
<path opacity="0.4" d="M15.3684 6.95832H8.23842C7.79925 6.4804 7.81217 5.74415 8.27717 5.27915L10.1113 3.44499C10.5893 2.96707 11.3772 2.96707 11.8551 3.44499L15.3684 6.95832Z" fill="#FFC2D7"/>
<path opacity="0.4" d="M23.4156 6.95832H16.2856L19.799 3.44499C20.2769 2.96707 21.0648 2.96707 21.5427 3.44499L23.3769 5.27915C23.8419 5.74415 23.8548 6.4804 23.4156 6.95832Z" fill="#FFC2D7"/>
<path opacity="0.6" d="M11.8809 13.4167V20.0559C11.8809 21.0892 13.0175 21.6963 13.8829 21.1409L15.0971 20.34C15.5363 20.0559 16.0917 20.0559 16.5179 20.34L17.6675 21.115C18.52 21.6834 19.6696 21.0763 19.6696 20.0429V13.4167H11.8809Z" fill="#FFC2D7"/>
</svg>
