<svg width="32" height="32" viewBox="0 0 32 32" fill="none" xmlns="http://www.w3.org/2000/svg">
<path d="M21.1265 28.9167H11.2064C5.79437 28.9167 4.72228 25.6487 6.47895 21.6704L8.33895 17.4467C8.33895 17.4467 12.2914 17.2917 16.1664 18.5833C20.0414 19.875 23.6969 17.4337 23.6969 17.4337L23.9423 17.2787L25.8669 21.6833C27.5977 25.6617 26.461 28.9167 21.1265 28.9167Z" fill="#C8A1E5"/>
<path opacity="0.4" d="M23.9422 17.2787L23.6968 17.4337C23.6968 17.4337 20.0414 19.875 16.1664 18.5833C12.2914 17.2916 8.33887 17.4466 8.33887 17.4466L11.9555 9.20581H11.568C10.7284 9.20581 9.95345 8.86998 9.39803 8.31456C8.84262 7.75915 8.50678 6.98415 8.50678 6.14456C8.50678 4.4654 9.87595 3.08331 11.568 3.08331H20.7518C21.6043 3.08331 22.3664 3.43206 22.9218 3.98748C23.6451 4.71081 24.0197 5.76998 23.7355 6.89373C23.3997 8.28873 22.0564 9.20581 20.6097 9.20581H20.403L23.9422 17.2787Z" fill="#C8A1E5"/>
</svg>
